<svg xmlns="http://www.w3.org/2000/svg" width="12" height="12" viewBox="0 0 16 16">
  <metadata><?xpacket begin="﻿" id="W5M0MpCehiHzreSzNTczkc9d"?>
<x:xmpmeta xmlns:x="adobe:ns:meta/" x:xmptk="Adobe XMP Core 5.6-c138 79.159824, 2016/09/14-01:09:01        ">
   <rdf:RDF xmlns:rdf="http://www.w3.org/1999/02/22-rdf-syntax-ns#">
      <rdf:Description rdf:about=""/>
   </rdf:RDF>
</x:xmpmeta>
                                                                                                    
                                                                                                    
                                                                                                    
                                                                                                    
                                                                                                    
                                                                                                    
                                                                                                    
                                                                                                    
                                                                                                    
                                                                                                    
                                                                                                    
                                                                                                    
                                                                                                    
                                                                                                    
                                                                                                    
                                                                                                    
                                                                                                    
                                                                                                    
                                                                                                    
                                                                                                    
                           
<?xpacket end="w"?></metadata>
<defs>
    <style>
      .cls-1 {
        fill: #5c7079;
        fill-rule: evenodd;
      }
    </style>
  </defs>
  <path id="file" class="cls-1" d="M15.192,15.992H3.845a0.8,0.8,0,0,1-.8-0.8V3.861a0.8,0.8,0,0,1,.8-0.8H15.192a0.8,0.8,0,0,1,.8.8V15.192A0.8,0.8,0,0,1,15.192,15.992ZM3.111,1.526a1.6,1.6,0,0,0-1.6,1.6v10.9q0,0.041,0,.082h-0.7a0.8,0.8,0,0,1-.8-0.8V0.808a0.8,0.8,0,0,1,.8-0.8H12.175a0.8,0.8,0,0,1,.8.8V1.529l-0.085,0H3.111Z"/>
</svg>
